<?xml version="1.0" encoding="UTF-8" standalone="no"?>
<!DOCTYPE svg PUBLIC "-//W3C//DTD SVG 1.1//EN" "http://www.w3.org/Graphics/SVG/1.1/DTD/svg11.dtd">
<svg width="100%" height="100%" viewBox="0 0 601 300" version="1.1" xmlns="http://www.w3.org/2000/svg" xmlns:xlink="http://www.w3.org/1999/xlink" xml:space="preserve" xmlns:serif="http://www.serif.com/" style="fill-rule:evenodd;clip-rule:evenodd;stroke-miterlimit:10;">
    <g transform="matrix(2.06071,0,0,2.06071,-208.084,-818.473)">
        <clipPath id="_clip1">
            <path d="M193.788,465.742L184.705,474.824L307.849,474.824L298.767,465.742L193.788,465.742Z" clip-rule="nonzero"/>
        </clipPath>
        <g clip-path="url(#_clip1)">
            <g transform="matrix(0.707107,-0.707107,-0.707107,-0.707107,192.36,476.279)">
                <path d="M-3.145,3.699L12.824,3.699L8.929,7.593L-7.04,7.593L-3.145,3.699Z" style="fill:rgb(0,255,255);fill-rule:nonzero;"/>
            </g>
            <g transform="matrix(0.707107,-0.707107,-0.707107,-0.707107,203.161,476.279)">
                <path d="M-3.145,3.699L12.824,3.699L8.929,7.593L-7.04,7.593L-3.145,3.699Z" style="fill:rgb(0,255,255);fill-rule:nonzero;"/>
            </g>
            <g transform="matrix(0.707107,-0.707107,-0.707107,-0.707107,213.961,476.279)">
                <path d="M-3.145,3.699L12.824,3.699L8.929,7.593L-7.04,7.593L-3.145,3.699Z" style="fill:rgb(0,255,255);fill-rule:nonzero;"/>
            </g>
            <g transform="matrix(0.707107,-0.707107,-0.707107,-0.707107,224.762,476.279)">
                <path d="M-3.145,3.699L12.824,3.699L8.929,7.593L-7.04,7.593L-3.145,3.699Z" style="fill:rgb(0,255,255);fill-rule:nonzero;"/>
            </g>
            <g transform="matrix(0.707107,-0.707107,-0.707107,-0.707107,235.562,476.279)">
                <path d="M-3.145,3.699L12.824,3.699L8.929,7.593L-7.04,7.593L-3.145,3.699Z" style="fill:rgb(0,255,255);fill-rule:nonzero;"/>
            </g>
            <g transform="matrix(0.707107,-0.707107,-0.707107,-0.707107,246.363,476.28)">
                <path d="M-3.145,3.699L12.824,3.699L8.929,7.594L-7.039,7.593L-3.145,3.699Z" style="fill:rgb(0,255,255);fill-rule:nonzero;"/>
            </g>
            <g transform="matrix(0.707107,-0.707107,-0.707107,-0.707107,257.164,476.279)">
                <path d="M-3.145,3.699L12.824,3.699L8.929,7.593L-7.04,7.593L-3.145,3.699Z" style="fill:rgb(0,255,255);fill-rule:nonzero;"/>
            </g>
            <g transform="matrix(0.707107,-0.707107,-0.707107,-0.707107,267.964,476.279)">
                <path d="M-3.145,3.699L12.824,3.699L8.929,7.593L-7.04,7.593L-3.145,3.699Z" style="fill:rgb(0,255,255);fill-rule:nonzero;"/>
            </g>
            <g transform="matrix(0.707075,-0.707138,-0.707138,-0.707075,278.765,476.279)">
                <path d="M-3.146,3.699L12.823,3.699L8.929,7.593L-7.04,7.593L-3.146,3.699Z" style="fill:rgb(0,255,255);fill-rule:nonzero;"/>
            </g>
            <g transform="matrix(0.707107,-0.707107,-0.707107,-0.707107,289.565,476.279)">
                <path d="M-3.145,3.699L12.824,3.699L8.929,7.593L-7.04,7.593L-3.145,3.699Z" style="fill:rgb(0,255,255);fill-rule:nonzero;"/>
            </g>
            <g transform="matrix(0.707107,-0.707107,-0.707107,-0.707107,300.366,476.279)">
                <path d="M-3.145,3.699L12.824,3.699L8.929,7.593L-7.04,7.593L-3.145,3.699Z" style="fill:rgb(0,255,255);fill-rule:nonzero;"/>
            </g>
            <g transform="matrix(0.707107,-0.707107,-0.707107,-0.707107,311.166,476.279)">
                <path d="M-3.145,3.699L12.824,3.699L8.929,7.593L-7.04,7.593L-3.145,3.699Z" style="fill:rgb(0,255,255);fill-rule:nonzero;"/>
            </g>
        </g>
    </g>
    <g transform="matrix(2.06071,0,0,2.06071,588.846,132.856)">
        <path d="M0,12.028L-72.904,12.028L-84.932,0L-196.865,0L-208.893,12.028L-281.797,12.028" style="fill:none;fill-rule:nonzero;stroke:rgb(0,255,255);stroke-width:0.81px;"/>
    </g>
    <g transform="matrix(0,2.06071,2.06071,0,8.4817,154.777)">
        <path d="M1.308,-1.31C0.585,-1.31 -0.001,-0.724 -0.001,-0.001C-0.001,0.722 0.585,1.308 1.308,1.308C2.032,1.308 2.619,0.722 2.619,-0.001C2.619,-0.724 2.032,-1.31 1.308,-1.31" style="fill:rgb(0,255,255);fill-rule:nonzero;"/>
    </g>
    <g transform="matrix(0,2.06071,2.06071,0,589.799,154.909)">
        <path d="M1.309,-1.309C0.586,-1.309 -0.001,-0.722 -0.001,0.001C-0.001,0.722 0.586,1.309 1.309,1.309C2.032,1.309 2.62,0.722 2.62,0.001C2.62,-0.722 2.032,-1.309 1.309,-1.309" style="fill:rgb(0,255,255);fill-rule:nonzero;"/>
    </g>
</svg>
